# xmcd
#
# Track frame offsets: 
#        150
#        12920
#        26543
#        42323
#        55018
#        67395
#        79485
#        92093
#        102463
#        113845
#        125738
#        137698
#        149468
#        162325
#        174000
#        186898
#        196440
#        210123
#
# Disc length: 2958 seconds
#
# Revision: 10
# Processed by: cddbd v1.5.2PL0 Copyright (c) Steve Scherf et al.
# Submitted via: ExactAudioCopyFreeDBPlugin 1.0
#
DISCID=010b8c12
DTITLE=Various Artist - Jump, Jive and Swing [Rhino Records]
DYEAR=1999
DGENRE=Rhythm and Blues
TTITLE0=Red Prysock - Hand Clappin'
TTITLE1=Joe Turner - Shake, Rattle, and Roll
TTITLE2=Louis Prima - Jump, Jive, an' Wail
TTITLE3=Wynonie Harris - Good Rockin' Tonight
TTITLE4=Roy Brown - Rockin' at Midnight
TTITLE5=Little Johnny Jones - Hoy Hoy
TTITLE6=Tiny Bradshaw - The Train Kept A-Rollin'
TTITLE7=Rudy Greene - Juicy Fruit
TTITLE8=Jackie Brenston and His Delta Cats - In My Real Gone Rocket
TTITLE9=Jimmy Liggins - Cadillac Boogie
TTITLE10=Ann Cole - Got My Mo-Jo Working (But it Just Won't Work on Yo
TTITLE10=u)
TTITLE11=Roy Milton - Hop, Skip and Jump
TTITLE12=Big Jay McNeely and Band - Deacon's Hop
TTITLE13=Clarence Brown - Rock My Blues Away
TTITLE14=Willie Mae "Big Mama" Thornton - Hound Dog
TTITLE15=Wynona Carr - 'Til the Well Runs Dry
TTITLE16=Bullmoose Jackson and His Buffalo Bearcats - Why Don't You Haul
TTITLE16=Off and Love Me
TTITLE17=Ruth Brown - Hello Little Boy
EXTD=LABEL =G. M. L. Inc. - Rhino Entertainment Company\nID =R275666\n
EXTD=UPC =08122-75666-23\nCOPYRIGHT =1992, 1999\n*****\nReferences t
EXTD=o this cd have the title listed with and without the exclaimation
EXTD=point. Since the cd itself lists it WITH the exclaimation point,
EXTD=i used that form of the title.\n*****\nOriginally issued as "Blu
EXTD=es Masters, Vol. 5: Jump Blues Classics" in 1992, copyright by "G
EXTD=M. L. Inc.".
EXTT0=
EXTT1=
EXTT2=
EXTT3=
EXTT4=
EXTT5=
EXTT6=
EXTT7=
EXTT8=
EXTT9=
EXTT10=
EXTT11=
EXTT12=
EXTT13=
EXTT14=
EXTT15=
EXTT16=
EXTT17=
PLAYORDER=
